<svg width="84" height="76" viewBox="0 0 84 76" fill="none" xmlns="http://www.w3.org/2000/svg">
<path d="M45.1854 29.4789C44.7276 30.1378 43.0433 30.8993 42.2882 30.78C43.1087 31.3592 43.2251 32.9191 43.2694 33.8006C43.7734 33.1622 44.9094 32.1576 45.8896 32.3767C44.6961 31.3304 45.1922 29.6974 45.1854 29.4789Z" fill="#ECB563" stroke="black" stroke-linecap="round"/>
<path d="M16.6894 13.7608C17.1059 12.9308 22.9997 8.99976 28.9998 10.9997" stroke="black" stroke-linecap="round"/>
<path d="M16.5 10.5002C16.8415 9.77809 23.5 6.50014 27.9999 8.50016" stroke="black" stroke-linecap="round"/>
<path d="M39.9102 57.7416C41.5461 57.9183 47.1512 57.798 50.4693 53.5565" stroke="black" stroke-linecap="round"/>
<path d="M42.0776 60.5199C44.5836 61.2496 48.032 60.1377 50.1711 58.1568" stroke="black" stroke-linecap="round"/>
<path d="M31.6801 16.8568C30.6623 15.8088 29.7527 14.6138 25.3309 14.6531C24.2752 15.2136 21.9549 17.8614 21.9944 20.7892C22.034 23.717 21.8487 26.1431 21.7511 26.9902L17.4182 29.3512L13.7415 36.6129L16.73 42.6982C27.7873 47.6125 34.7597 34.899 29.8243 29.341C30.5865 28.2433 36.7813 22.1094 31.6801 16.8568Z" fill="black" stroke="black" stroke-linecap="round"/>
<path d="M30.4117 17.7774C27.4407 11.3461 15.436 16.2791 20.1705 26.021C7.91955 26.2689 8.56895 43.7965 20.9737 43.2128C25.4106 42.9391 31.889 33.8947 26.7131 28.7751C27.2186 28.2842 33.5195 23.1397 30.4117 17.7774Z" fill="#ECB563" stroke="black" stroke-linecap="round"/>
<path d="M24.0416 19.6578C22.6998 20.9609 22.4462 23.904 23.7855 25.3974C25.0376 24.9145 25.6127 24.2835 25.9409 23.5431C26.6655 22.6376 27.3882 21.0057 26.4138 19.9225C25.3651 18.7567 24.5459 19.168 24.0416 19.6578Z" fill="white" stroke="black" stroke-linecap="round"/>
<path d="M16.6954 34.8808C17.4119 32.3368 18.8403 30.9694 21.4805 31.0377C23.2397 32.6088 23.5815 33.5659 22.881 35.6289C22.1821 38.0293 20.3802 39.4445 18.6003 38.9262C17.1481 38.8886 16.529 37.488 16.6954 34.8808Z" fill="white" stroke="black" stroke-linecap="round"/>
<path d="M48.9018 21.5755C47.9523 21.3553 46.9805 20.0748 43.948 21.5462C53.4597 32.5549 45.5654 45.3584 37.9874 49.9218C45.8689 53.2583 50.6598 43.1525 52.0899 39.9287C52.7378 38.045 59.0073 26.0824 48.9018 21.5755Z" fill="black" stroke="black" stroke-linecap="round"/>
<path d="M41.224 23.1778C45.0934 20.001 48.6657 20.2161 50.7558 24.1088C54.6495 32.2805 47.8715 42.2459 46.6918 44.0692C45.6101 45.7409 41.4432 51.7742 36.4042 49.3425C33.4783 47.9306 29.7799 35.6252 41.224 23.1778Z" fill="#ECB563" stroke="black" stroke-linecap="round"/>
<path d="M38.7588 36.4494C39.72 33.6003 41.4064 31.2881 42.1333 30.2582C44.2126 27.3125 47.4004 29.739 46.5366 32.0642C45.4913 37.2426 41.8575 46.0077 38.7805 44.3421C37.4011 43.5955 37.6823 39.6404 38.7588 36.4494Z" fill="white" stroke="black" stroke-linecap="round"/>
<path d="M40.4481 44.2777C39.8504 42.1521 42.1731 31.8025 46.2588 30.4582C45.962 29.2249 45.0981 29.0787 43.5182 29.1394C39.3191 31.0412 37.8503 39.9872 37.8237 41.5419C37.7902 43.5038 38.9053 44.9814 40.4481 44.2777Z" fill="black" stroke="black" stroke-linecap="round"/>
<path d="M19.6171 38.5848C18.2294 36.2339 20.6996 32.39 22.5553 32.1975C22.2617 31.7071 21.9725 31.5222 21.5991 31.0895C19.6787 30.5305 18.1754 31.759 17.1203 33.9514C15.8015 36.6919 17.0228 39.6515 19.6171 38.5848Z" fill="black" stroke="black" stroke-linecap="round"/>
<path d="M24.9276 24.5886C24.5277 23.1796 24.7333 21.1463 26.199 19.6967C25.8724 19.3502 25.02 18.9834 24.4739 19.4278C23.7914 19.9832 21.5752 22.2291 23.7566 25.4682C24.3765 25.1279 24.7385 24.7125 24.9276 24.5886Z" fill="black" stroke="black" stroke-linecap="round"/>
<path d="M60.7954 38.3643L66.2915 40.801L66.2209 35.2292L68.9354 34.8376L74.3258 37.2274L71.6819 43.1909L77.8121 45.9088L75.4929 51.1399L72.8682 51.7462L69.3626 48.422L67.9711 51.5607L66.5795 54.6993L64.1296 54.9301L61.1891 52.3095L63.9722 46.0321L58.49 38.5292L60.7954 38.3643Z" fill="black" stroke="black" stroke-linecap="round"/>
<path d="M63.337 41.1394L65.953 35.2391L71.4289 37.6668L68.813 43.5671L75.0405 46.3282L72.7459 51.5039L66.5183 48.7428L65.1415 51.8483L63.7647 54.9537L58.2888 52.5259L61.0424 46.3151L55.459 43.8397L57.7537 38.664L63.337 41.1394Z" fill="#ECB563" stroke="black" stroke-linecap="round"/>
<path d="M74.9061 46.3468L77.7057 45.8642" stroke="black" stroke-linecap="round"/>
<path d="M71.7444 43.0871L69.3395 43.6355" stroke="black" stroke-linecap="round"/>
<path d="M71.1739 37.5539L73.9735 37.0713" stroke="black" stroke-linecap="round"/>
<path d="M63.337 41.1398L65.953 35.2396L71.4289 37.6673L68.813 43.5676L75.0405 46.3286L72.7459 51.5043L66.5183 48.7433L65.1415 51.8487L63.7647 54.9542L58.2888 52.5264L61.0424 46.3155L55.459 43.8402L57.7537 38.6645L63.337 41.1398Z" fill="#ECB563" stroke="black" stroke-linecap="round"/>
</svg>
