<svg width="167" height="127" viewBox="0 0 167 127" fill="none" xmlns="http://www.w3.org/2000/svg">
<g filter="url(#filter0_d_2048_6)">
<path d="M131 2C130.538 5 127.25 10.75 125 11.5C128 12.25 129.788 17.5 131 20.5C131.615 17.5 134 12.25 137 11.5C132.385 9.7 131.288 2.75 131 2Z" fill="white" stroke="black" stroke-linecap="round"/>
<path d="M56.9852 93L53.4852 79.5L70.4852 75L69.9852 81L66.9852 82H60.4852L61.4852 88C63.9852 87.3333 70.9852 87.5 71.9852 97C72.9401 106.071 64.6519 110.333 59.4852 111.5V105.5C62.4852 105.167 68.1852 102.6 66.9852 97C65.7852 91.4 59.8186 92 56.9852 93Z" fill="black" stroke="black"/>
<path d="M53.9852 94L51.9852 80L67.4852 76L66.9852 82L57.4852 83L58.4852 89C60.9852 88.3333 67.9852 88.5 68.9852 98C69.9401 107.071 61.6519 111.333 56.4852 112.5V106C59.4852 105.667 65.1852 103.6 63.9852 98C62.7852 92.4 56.8186 93 53.9852 94Z" fill="#ECB563" stroke="black"/>
<path d="M63.9852 115.6C70.4852 115.6 77.9852 112 77.9852 105M68.9852 118.5C71.8818 118.344 77.9852 117 80.4852 110.5" stroke="black"/>
<path d="M121.185 41.4789C120.728 42.1378 119.043 42.8993 118.288 42.78C119.109 43.3592 119.225 44.9191 119.269 45.8006C119.773 45.1622 120.909 44.1576 121.89 44.3767C120.696 43.3304 121.192 41.6974 121.185 41.4789Z" fill="#ECB563" stroke="black" stroke-linecap="round"/>
<path d="M92.6894 25.7608C93.1059 24.9308 98.9997 20.9998 105 22.9997" stroke="black" stroke-linecap="round"/>
<path d="M92.5 22.5002C92.8415 21.7781 99.5 18.5001 104 20.5002" stroke="black" stroke-linecap="round"/>
<path d="M115.91 69.7416C117.546 69.9183 123.151 69.798 126.469 65.5565" stroke="black" stroke-linecap="round"/>
<path d="M118.078 72.5199C120.584 73.2496 124.032 72.1377 126.171 70.1568" stroke="black" stroke-linecap="round"/>
<path d="M107.68 28.8568C106.662 27.8088 105.753 26.6138 101.331 26.6531C100.275 27.2136 97.9549 29.8614 97.9944 32.7892C98.034 35.717 97.8487 38.1431 97.7511 38.9902L93.4182 41.3512L89.7415 48.6129L92.73 54.6982C103.787 59.6125 110.76 46.899 105.824 41.341C106.586 40.2433 112.781 34.1094 107.68 28.8568Z" fill="black" stroke="black" stroke-linecap="round"/>
<path d="M106.412 29.7774C103.441 23.3461 91.436 28.2791 96.1705 38.021C83.9196 38.2689 84.569 55.7965 96.9737 55.2128C101.411 54.9391 107.889 45.8947 102.713 40.7751C103.219 40.2842 109.519 35.1397 106.412 29.7774Z" fill="#ECB563" stroke="black" stroke-linecap="round"/>
<path d="M100.042 31.6578C98.6998 32.9609 98.4462 35.904 99.7855 37.3974C101.038 36.9145 101.613 36.2835 101.941 35.5431C102.666 34.6376 103.388 33.0057 102.414 31.9225C101.365 30.7567 100.546 31.168 100.042 31.6578Z" fill="white" stroke="black" stroke-linecap="round"/>
<path d="M92.6954 46.8808C93.4119 44.3368 94.8403 42.9694 97.4805 43.0377C99.2397 44.6088 99.5815 45.5659 98.881 47.6289C98.1821 50.0293 96.3802 51.4445 94.6003 50.9262C93.1481 50.8886 92.529 49.488 92.6954 46.8808Z" fill="white" stroke="black" stroke-linecap="round"/>
<path d="M124.902 33.5755C123.952 33.3553 122.98 32.0748 119.948 33.5462C129.46 44.5549 121.565 57.3584 113.987 61.9218C121.869 65.2583 126.66 55.1525 128.09 51.9287C128.738 50.045 135.007 38.0824 124.902 33.5755Z" fill="black" stroke="black" stroke-linecap="round"/>
<path d="M117.224 35.1778C121.093 32.001 124.666 32.2161 126.756 36.1088C130.65 44.2805 123.871 54.2459 122.692 56.0692C121.61 57.7409 117.443 63.7742 112.404 61.3425C109.478 59.9306 105.78 47.6252 117.224 35.1778Z" fill="#ECB563" stroke="black" stroke-linecap="round"/>
<path d="M114.759 48.4494C115.72 45.6003 117.406 43.2881 118.133 42.2582C120.213 39.3125 123.4 41.739 122.537 44.0642C121.491 49.2426 117.858 58.0077 114.78 56.3421C113.401 55.5955 113.682 51.6404 114.759 48.4494Z" fill="white" stroke="black" stroke-linecap="round"/>
<path d="M116.448 56.2777C115.85 54.1521 118.173 43.8025 122.259 42.4582C121.962 41.2249 121.098 41.0787 119.518 41.1394C115.319 43.0412 113.85 51.9872 113.824 53.5419C113.79 55.5038 114.905 56.9814 116.448 56.2777Z" fill="black" stroke="black" stroke-linecap="round"/>
<path d="M95.6171 50.5848C94.2294 48.2339 96.6996 44.39 98.5553 44.1975C98.2617 43.7071 97.9725 43.5222 97.5991 43.0895C95.6787 42.5305 94.1754 43.759 93.1203 45.9514C91.8015 48.6919 93.0228 51.6515 95.6171 50.5848Z" fill="black" stroke="black" stroke-linecap="round"/>
<path d="M100.928 36.5886C100.528 35.1796 100.733 33.1463 102.199 31.6967C101.872 31.3502 101.02 30.9834 100.474 31.4278C99.7914 31.9832 97.5752 34.2291 99.7566 37.4682C100.376 37.1279 100.739 36.7125 100.928 36.5886Z" fill="black" stroke="black" stroke-linecap="round"/>
<path d="M136.795 50.3643L142.291 52.801L142.221 47.2292L144.935 46.8376L150.326 49.2274L147.682 55.1909L153.812 57.9088L151.493 63.1399L148.868 63.7462L145.363 60.422L143.971 63.5607L142.58 66.6993L140.13 66.9301L137.189 64.3095L139.972 58.0321L134.49 50.5292L136.795 50.3643Z" fill="black" stroke="black" stroke-linecap="round"/>
<path d="M139.337 53.1394L141.953 47.2391L147.429 49.6668L144.813 55.5671L151.041 58.3282L148.746 63.5039L142.518 60.7428L141.142 63.8483L139.765 66.9537L134.289 64.5259L137.042 58.3151L131.459 55.8397L133.754 50.664L139.337 53.1394Z" fill="#ECB563" stroke="black" stroke-linecap="round"/>
<path d="M150.906 58.3468L153.706 57.8642" stroke="black" stroke-linecap="round"/>
<path d="M147.744 55.0871L145.34 55.6355" stroke="black" stroke-linecap="round"/>
<path d="M147.174 49.5539L149.973 49.0713" stroke="black" stroke-linecap="round"/>
<path d="M139.337 53.1398L141.953 47.2396L147.429 49.6673L144.813 55.5676L151.041 58.3286L148.746 63.5043L142.518 60.7433L141.142 63.8487L139.765 66.9542L134.289 64.5264L137.042 58.3155L131.459 55.8402L133.754 50.6645L139.337 53.1398Z" fill="#ECB563" stroke="black" stroke-linecap="round"/>
<path d="M32.216 90C31.9852 91.3333 30.1102 93.6667 28.9852 94C30.4852 94.3333 31.6102 96.6667 32.216 98C32.5237 96.6667 33.4852 94.3333 34.9852 94C32.6775 93.2 32.3602 90.3333 32.216 90Z" fill="white" stroke="black" stroke-linecap="round"/>
<path d="M159.773 27.6783C158.658 29.3665 154.923 31.5008 153.352 31.328C154.959 32.6183 154.859 36.4248 154.756 38.5793C155.965 36.934 158.593 34.2905 160.619 34.6724C158.326 32.296 159.739 28.2129 159.773 27.6783Z" fill="white" stroke="black" stroke-linecap="round"/>
<path d="M15.7945 78.2995L16.3934 68.5598L9.91229 68.6233L7.21589 65.1315L7.21817 55.5305L9.41907 53.7341L12.6596 53.7024L11.725 64.6182L17.5048 63.8578L17.8658 55.4261L19.8352 53.632L22.7286 53.6036L20.0766 78.2575L18.5487 79.8225L15.7945 78.2995Z" fill="black" stroke="black"/>
<path d="M5.11251 67.0275L7.36614 55.5286L10.6787 55.4961L9.72184 66.509L15.6302 65.7412L18.0137 55.4242L20.9714 55.3952L18.2573 80.2686L13.88 80.3115L14.4935 70.4851L7.86837 70.55L5.11251 67.0275Z" fill="#ECB563" stroke="black"/>
</g>
<defs>
<filter id="filter0_d_2048_6" x="0.577881" y="0.0654297" width="165.491" height="126.934" filterUnits="userSpaceOnUse" color-interpolation-filters="sRGB">
<feFlood flood-opacity="0" result="BackgroundImageFix"/>
<feColorMatrix in="SourceAlpha" type="matrix" values="0 0 0 0 0 0 0 0 0 0 0 0 0 0 0 0 0 0 127 0" result="hardAlpha"/>
<feOffset dy="4"/>
<feGaussianBlur stdDeviation="2"/>
<feComposite in2="hardAlpha" operator="out"/>
<feColorMatrix type="matrix" values="0 0 0 0 0 0 0 0 0 0 0 0 0 0 0 0 0 0 0.25 0"/>
<feBlend mode="normal" in2="BackgroundImageFix" result="effect1_dropShadow_2048_6"/>
<feBlend mode="normal" in="SourceGraphic" in2="effect1_dropShadow_2048_6" result="shape"/>
</filter>
</defs>
</svg>
