<svg width="29" height="28" viewBox="0 0 29 28" fill="none" xmlns="http://www.w3.org/2000/svg">
<path d="M14.2855 19.5025L14.8776 19.9743L18.8021 16.5676L18.5639 15.6518C18.9964 15.1091 19.1693 13.8594 18.4089 11.8983C17.4583 9.44692 14.0262 7.68007 11.251 9.34066C8.47581 11.0012 7.65261 13.2492 8.92925 16.2025C10.0833 18.8721 12.7684 19.5843 14.2855 19.5025Z" fill="white" stroke="black" stroke-linecap="round"/>
<path d="M18.3422 23.2192C19.3783 24.0448 21.2427 22.1909 20.7912 21.0568L18.3422 23.2192Z" stroke="black" stroke-linecap="round"/>
<path d="M14.9955 19.8264L15.7957 20.948C16.8041 22.7195 18.0669 23.5643 18.3421 23.219L20.7911 21.0565C20.7911 21.0565 21.0571 21.0265 20.8489 20.3766C20.6408 19.7267 18.6842 16.7157 18.6842 16.7157L14.9955 19.8264Z" fill="#ECB563"/>
<path d="M11.945 16.6696L12.241 16.9055L13.2146 15.9873L13.1822 14.5095L15.6383 15.9827L14.8358 13.6492L15.8418 14.2088L16.4315 13.4687M15.7957 20.948L14.9955 19.8264L18.6842 16.7157C18.6842 16.7157 20.6408 19.7267 20.8489 20.3766C21.0571 21.0265 20.7911 21.0565 20.7911 21.0565L18.3421 23.219C18.0669 23.5643 16.8041 22.7195 15.7957 20.948Z" stroke="black" stroke-linecap="round"/>
<path d="M7.9928 21.0225L9.05428 19.6903" stroke="black" stroke-linecap="round"/>
<path d="M6.67662 12.9553L2.62476 11.6626" stroke="black" stroke-linecap="round"/>
<path d="M9.71084 7.62954L8.13812 4.44039" stroke="black" stroke-linecap="round"/>
<path d="M15.0576 6.0819L15.9687 3.41998" stroke="black" stroke-linecap="round"/>
<path d="M19.8242 10.1221L21.5934 7.90184" stroke="black" stroke-linecap="round"/>
</svg>
