<svg width="75" height="72" viewBox="0 0 75 72" fill="none" xmlns="http://www.w3.org/2000/svg">
<path d="M17.0674 47.5308C10.5714 31.8813 21.3473 22.4885 27.7645 19.6552C42.891 12.9767 52.1109 20.2131 57.4044 29.7215C62.698 39.2299 59.0502 51.9209 51.1923 56.4873C44.9135 60.8748 25.6872 68.2967 17.0674 47.5308Z" fill="#ECB563" stroke="#3D3D3D" stroke-linecap="round"/>
<path d="M20.933 45.8399C16.238 29.3359 26.7985 22.4372 32.6656 21.0509C49.6949 15.5963 57.0603 33.5015 55.7126 43.9011C54.3648 54.3006 26.8018 66.4699 20.933 45.8399Z" fill="white" stroke="#3D3D3D" stroke-linecap="round"/>
<path d="M37.9356 39.1764C37.1483 38.6907 37.0097 40.1674 37.4841 40.5418C38.0664 41.0014 38.6514 39.6906 38.4581 39.2529C38.2054 38.6806 37.3167 38.6028 37.2814 39.3395C37.2337 40.3346 38.2908 40.5638 38.5909 39.5853C38.8084 38.8761 38.4825 38.1947 37.6738 38.5518C37.1929 38.7641 37.3372 39.8512 37.882 39.8773C38.4738 39.9057 38.6936 38.91 38.1349 38.837C37.5446 38.7599 37.2219 40.5188 38.1555 39.9591" stroke="#3D3D3D" stroke-linecap="round"/>
<path d="M23.3706 32.6614C23.6545 32.7545 26.0625 33.5899 26.0533 33.6136" stroke="#3D3D3D" stroke-linecap="round"/>
<path d="M31.6447 24.3583C31.366 23.727 32.3779 25.5865 32.428 26.2748C32.4548 26.6417 32.9084 27.505 32.5147 26.6136" stroke="#3D3D3D" stroke-linecap="round"/>
<path d="M42.2485 27.5947C42.0235 26.8803 42.9575 25.8135 43.1884 25.1688C43.2981 24.8626 43.5089 23.9572 43.5286 24.5159" stroke="#3D3D3D" stroke-linecap="round"/>
<path d="M49.3076 33.9043C49.9239 33.6322 51.2229 33.5087 51.6216 32.8826" stroke="#3D3D3D" stroke-linecap="round"/>
<path d="M49.1091 43.4182C49.7461 43.665 50.396 43.8482 51.0338 44.0767C51.4675 44.2321 51.9996 44.643 52.3983 44.6054" stroke="#3D3D3D" stroke-linecap="round"/>
<path d="M42.7187 50.0103C42.2448 49.858 43.1528 51.5626 43.2824 51.8562C43.3311 51.9666 44.0474 53.4379 44.0655 53.0605" stroke="#3D3D3D" stroke-linecap="round"/>
<path d="M31.9372 52.634C31.9845 52.7411 31.9373 52.5104 31.9375 52.5082C31.9686 52.1779 32.1383 51.8624 32.1903 51.5307C32.2484 51.1598 32.3447 50.6821 32.5719 50.3708C32.6915 50.2067 33.0072 49.3642 33.0192 49.3912" stroke="#3D3D3D" stroke-linecap="round"/>
<path d="M23.5504 45.0248C24.4873 44.6112 25.3278 44.1144 26.262 43.7019C26.3921 43.6445 26.8277 43.532 26.844 43.3752C26.8775 43.0517 27.1915 43.1659 27.1389 43.1891" stroke="#3D3D3D" stroke-linecap="round"/>
<path d="M23.8609 15.7141C22.3033 16.4018 22.9404 17.4984 23.5015 18.7694C23.6371 19.0764 24.5799 18.7162 24.9676 18.5451C25.8573 18.1713 26.6145 17.7513 27.4127 17.3989L29.9604 16.274C29.8668 14.1157 28.4556 13.8045 27.2448 14.3391C26.1727 14.8124 24.9471 15.2345 23.8609 15.7141Z" fill="#ECB563" stroke="#3D3D3D" stroke-linecap="round"/>
<path d="M25.5139 18.6004C25.5139 18.6004 25.7796 19.97 26.3054 19.9794C27.2243 19.3134 29.3398 18.9944 29.1948 18.666C28.9901 18.2023 28.645 17.7785 28.4033 17.2871C28.2347 16.9441 27.6948 17.2824 27.5444 17.3488C27.172 17.5132 25.9201 18.4211 25.5139 18.6004Z" stroke="#3D3D3D" stroke-linecap="round"/>
<path d="M39.1391 26.7018C38.316 29.8075 37.7099 34.6469 37.0759 36.9382C37.5348 36.7352 38.4529 36.3298 39.5202 37.5047C39.4248 34.8036 39.6395 30.3202 39.1391 26.7018Z" fill="#ECB563" stroke="#3D3D3D" stroke-linecap="round"/>
<path d="M20.3595 18.9139C20.1138 18.1787 19.9358 16.2614 21.1889 14.4735" stroke="#3D3D3D" stroke-linecap="round"/>
<path d="M18.3855 15.4243C18.1171 15.8041 17.6828 16.8747 18.0931 18.1188" stroke="#3D3D3D" stroke-linecap="round"/>
<path d="M32.5163 14.0317C32.1573 13.3447 30.9001 11.8862 28.7431 11.5481" stroke="#3D3D3D" stroke-linecap="round"/>
<path d="M31.373 10.189C31.8328 10.2592 32.9051 10.6893 33.5164 11.8479" stroke="#3D3D3D" stroke-linecap="round"/>
<path d="M61.0274 30.5875C62.3884 32.6457 64.5154 38.3945 62.1357 44.9244" stroke="#3D3D3D" stroke-linecap="round"/>
<path d="M65.4382 40.9017C65.9505 39.5127 66.2942 36.1034 64.5815 32.5007" stroke="#3D3D3D" stroke-linecap="round"/>
<path d="M50.5313 16.5891C48.6887 14.948 43.3027 12.0215 36.4998 13.4438" stroke="#3D3D3D" stroke-linecap="round"/>
<path d="M41.0286 10.9367C42.5263 10.784 46.5711 10.876 49.203 13.2751" stroke="#3D3D3D" stroke-linecap="round"/>
<path d="M11.4294 42.2028C10.7546 39.8294 9.56077 32.8368 13.8038 27.3323" stroke="#3D3D3D" stroke-linecap="round"/>
<path d="M9.43957 30.1682C8.53114 31.3372 6.99548 34.6791 8.12026 38.6946" stroke="#3D3D3D" stroke-linecap="round"/>
<path d="M21.3363 60.2059C22.9569 62.0666 27.9302 65.6498 34.8583 65.0978" stroke="#3D3D3D" stroke-linecap="round"/>
<path d="M30.1006 67.2082C28.6253 67.3316 24.9868 66.7948 22.2356 63.6612" stroke="#3D3D3D" stroke-linecap="round"/>
</svg>
