<svg width="77" height="51" viewBox="0 0 77 51" fill="none" xmlns="http://www.w3.org/2000/svg">
<path d="M75.8453 30.3314C70.7407 26.3927 69.0094 23.5072 66.701 20.6216C59.7757 11.965 52.5826 14.6542 50.054 16.1714C49.7169 12.9686 47.1209 6.15826 39.4341 4.53998C29.8256 2.51714 28.3084 2.01142 27.8027 1C24.5662 3.02285 9.25993 10.9457 2.0114 14.6542C2.27494 14.8848 2.61745 15.1121 3.02283 15.3304L0.999977 17.1828C1.33712 17.6885 2.41597 18.9023 4.03425 19.7113C8.07994 21.2285 13.6428 19.7113 19.7113 23.2513C25.7799 26.7913 25.2741 31.8484 24.2627 35.8941C24.7684 36.9055 26.117 37.4113 26.7913 37.4113C28.3084 35.3884 30.9381 33.8713 35.3884 33.8713C45.5026 34.8827 42.9741 43.9855 53.594 46.5141C55.0365 45.4562 56.7743 44.2631 58.6511 43.0204C64.67 39.0349 72.1188 34.5387 75.8453 32.3541L74.8339 30.6262C75.1732 30.518 75.5105 30.4195 75.8453 30.3314Z" fill="white"/>
<path d="M50.054 16.1714C52.5826 14.6542 59.7757 11.965 66.701 20.6216C69.0094 23.5072 70.7407 26.3927 75.8453 30.3314C75.5105 30.4195 75.1732 30.518 74.8339 30.6262M50.054 16.1714C48.0312 18.1943 28.2394 30.3314 26.7913 34.8827M50.054 16.1714C49.7169 12.9686 47.1209 6.15826 39.4341 4.53998C29.8256 2.51714 28.3084 2.01142 27.8027 1C24.5661 3.02285 9.25994 10.9457 2.0114 14.6542C2.27494 14.8848 2.61745 15.1121 3.02282 15.3304M26.7913 34.8827C30.1627 33.197 37.5124 29.8256 41.9626 33.8713C47.5255 38.9284 50.5597 44.4912 53.594 44.9969C54.5702 44.0208 65.439 33.623 74.8339 30.6262M26.7913 34.8827C30.3313 23.757 16.677 17.6885 10.1028 17.1828C7.42649 16.9769 4.69183 16.2293 3.02282 15.3304M74.8339 30.6262L75.8453 32.3541C70.9568 35.2198 59.6626 42.0638 53.594 46.5141C42.9741 43.9855 45.5026 34.8827 35.3884 33.8713C30.9381 33.8713 28.3084 35.3884 26.7913 37.4113C26.117 37.4113 24.7684 36.9055 24.2627 35.8941C25.2741 31.8484 25.7799 26.7913 19.7113 23.2513C13.6428 19.7113 8.07994 21.2285 4.03424 19.7113C2.41597 18.9023 1.33712 17.6885 0.999975 17.1828L3.02282 15.3304M27.297 37.4113C33.8712 33.3656 39.9398 34.8827 43.9855 41.457C46.1639 44.9969 49.0426 47.0198 52.5826 48.0312C52.5826 48.0312 54.6054 46.0084 58.6511 43.0204" stroke="#3D3D3D" stroke-linecap="round"/>
<path d="M47.5254 45.5023C40.4454 42.4682 40.4454 34.3766 29.3198 36.3995" stroke="#3D3D3D" stroke-linecap="round"/>
<path d="M4.03435 25.2744C7.25905 26.3928 15.3385 29.8555 23.2514 33.8715C22.4423 36.7035 23.0907 37.1796 25.2742 38.4229C27.4578 39.6663 29.1891 37.935 29.3199 37.4115C29.8257 38.9286 45.5027 45.5029 52.5827 50.0543C55.8192 46.8177 69.1026 38.5915 75.3397 34.8829L74.3283 33.3658" stroke="#3D3D3D" stroke-linecap="round"/>
<path d="M4.53989 24.2625L2.01133 18.6997C6.05703 22.7454 11.6199 22.7454 14.6541 23.7568C17.6884 24.7682 24.2627 26.7911 23.2512 33.3654C20.0147 30.1288 9.42844 25.9482 4.53989 24.2625Z" fill="white" stroke="#3D3D3D" stroke-linecap="round"/>
<path d="M23.2512 33.3655C23.2512 27.8026 15.3631 25.9272 11.1141 24.7684C5.5513 23.2512 3.69703 21.2284 3.02274 20.7227" stroke="#3D3D3D" stroke-linecap="round"/>
<path d="M32.4314 13.8903C33.2364 13.1657 40.9765 6.30755 46.514 8.42289C44.5165 2.76748 39.431 5.89638 39.0125 6.01595C35.9194 6.8997 30.1966 11.2445 29.845 11.4879C29.8021 11.5176 28.9884 12.0722 29.2467 12.146C29.8534 12.3194 30.8491 12.1506 31.4558 12.1506C31.6839 12.1506 32.4515 11.9891 32.2013 12.2611C31.9553 12.5285 31.9194 13.0079 31.8147 13.3518C31.7071 13.7055 31.7687 14.1328 31.7687 14.5023C31.7687 14.6078 31.9012 14.3376 31.9758 14.263C32.118 14.1208 32.2836 14.0233 32.4314 13.8903Z" fill="#ECB563" stroke="#3D3D3D" stroke-linecap="round"/>
<path d="M42.4296 16.7136C42.4001 16.478 41.9048 16.0277 41.7669 15.8208C41.564 15.5164 41.3121 15.2511 41.1041 14.9555C40.8496 14.5938 40.4152 14.0082 40.0272 13.8142" stroke="#3D3D3D" stroke-linecap="round"/>
<path d="M32.986 7.76691C32.4132 7.4637 32.0461 6.98817 31.412 6.77284C30.732 6.5419 30.1644 6.11315 29.4883 5.88002C29.2809 5.80851 29.0522 5.74913 28.8394 5.69593C28.6182 5.64064 28.4261 5.4558 28.1997 5.44742C28.0539 5.44202 27.3738 5.34374 27.4358 5.28174" stroke="#3D3D3D" stroke-linecap="round"/>
<path d="M38.4226 19.2056C37.9169 18.1942 36.602 15.9691 35.3883 15.1599" stroke="#3D3D3D" stroke-linecap="round"/>
<path d="M28.8141 10.1029C27.4655 9.42864 24.2627 8.08008 22.2398 8.08008" stroke="#3D3D3D" stroke-linecap="round"/>
<path d="M34.377 21.7341C32.6912 18.8684 26.9936 12.6312 17.6885 10.6084" stroke="#3D3D3D" stroke-linecap="round"/>
<path d="M29.3198 24.7685C28.3084 21.5656 23.4536 14.8565 12.1256 13.6428" stroke="#3D3D3D" stroke-linecap="round"/>
<path d="M66.7426 30.3312C65.2254 29.4883 61.9889 27.3981 61.1797 25.7798" stroke="#3D3D3D" stroke-linecap="round"/>
<path d="M58.1454 23.757C57.3025 22.9142 54.8077 21.0262 51.5711 20.217" stroke="#3D3D3D" stroke-linecap="round"/>
<path d="M62.6969 32.8597C62.1912 32.5226 60.8763 31.4437 59.6626 29.8254" stroke="#3D3D3D" stroke-linecap="round"/>
<path d="M56.6283 27.8027C55.4483 26.4542 52.0769 23.5547 48.0312 22.7456" stroke="#3D3D3D" stroke-linecap="round"/>
<path d="M59.1569 35.8942C57.8083 34.8828 54.5043 32.2531 52.0769 29.8257C49.0426 26.7914 46.0084 25.2743 42.4684 24.7686" stroke="#3D3D3D" stroke-linecap="round"/>
<path d="M54.0997 38.4226C53.2569 37.9169 51.2677 36.3998 50.054 34.3769C48.5369 31.8484 45.5026 27.8027 38.4227 28.3084" stroke="#3D3D3D" stroke-linecap="round"/>
<path d="M60.6741 9.09131C59.9998 9.59702 58.3478 10.8107 57.1341 11.6199" stroke="#3D3D3D" stroke-linecap="round"/>
<path d="M54.6053 4.53979C54.2682 5.55122 53.5939 7.87749 53.5939 9.0912" stroke="#3D3D3D" stroke-linecap="round"/>
<path d="M50.5597 9.09149C50.2226 7.57436 49.346 4.23666 48.5368 3.02295" stroke="#3D3D3D" stroke-linecap="round"/>
</svg>
