<svg width="59" height="52" viewBox="0 0 59 52" fill="none" xmlns="http://www.w3.org/2000/svg">
<path d="M31 49C32.1667 48.6667 34.8 47.2 36 44" stroke="black" stroke-linecap="round"/>
<path d="M19.8362 8.65842C20.1437 7.48469 21.5521 4.81971 24.7249 3.54955" stroke="black" stroke-linecap="round"/>
<path d="M34 50C34.7 49.8 36.28 48.92 37 47" stroke="black" stroke-linecap="round"/>
<path d="M21.6347 2.49772C20.9578 2.76564 19.472 3.79686 18.9445 5.7784" stroke="black" stroke-linecap="round"/>
<path d="M49.3257 38.6887C45.5 36 42.4474 34.8229 42.3606 34.7458C40.2175 36.0097 34.0561 36.0097 31.3772 35.206C18.2507 30.1161 19.7088 23.5 19.7088 19.0074C19.7088 3.49998 32.9846 2.25581 36.247 2.54482C38.8781 2.54482 52.6664 3.49992 52.6664 17.5256C54 25.9999 48.0911 31.0297 47.7184 31.4557C49 34 49.3257 36 49.3257 38.6887Z" fill="#E3E6FA" stroke="black" stroke-linecap="round"/>
<path d="M32.334 15.851C32.098 15.8173 32.0316 15.6409 32.0395 15.472C32.0334 15.4347 32.0296 15.3946 32.028 15.3529C32.0172 15.0623 32.1138 14.6903 32.2583 14.5755C32.5024 14.3816 32.7163 14.6707 32.791 15.023C32.8147 15.0655 32.826 15.1211 32.8204 15.1916C32.8198 15.1995 32.8187 15.2077 32.8171 15.2163C32.8376 15.5661 32.7095 15.9046 32.334 15.851Z" fill="#E3E6FA"/>
<path d="M32.2583 15.2889C32.2256 14.7661 31.7366 15.7656 32.334 15.851C33.1671 15.97 32.7825 14.1592 32.2583 14.5755C32.0514 14.7398 31.9427 15.4316 32.107 15.6564C32.3485 15.9869 32.8016 15.4269 32.8204 15.1916C32.8571 14.7324 32.1718 14.9043 32.0637 15.2348C31.9056 15.7186 31.9672 15.9092 32.4529 15.9699" stroke="black" stroke-linecap="round"/>
<path d="M40.0302 15.8564C39.642 16.3 39.4458 15.8211 39.4575 15.4236C39.4418 15.3625 39.4324 15.2971 39.4312 15.2305C39.43 15.16 39.4379 15.0881 39.4573 15.0187C39.7759 13.8753 40.4888 15.3198 40.1038 15.7057C40.0853 15.7691 40.0603 15.8219 40.0302 15.8564Z" fill="#E3E6FA"/>
<path d="M39.8464 15.0944C39.2589 14.5721 39.349 16.6349 40.0302 15.8564C40.206 15.6555 40.204 14.8323 39.8032 14.9052C39.585 14.9449 39.4161 15.6941 39.6626 15.7645C40.8282 16.0975 39.8474 13.619 39.4573 15.0187C39.3153 15.5281 39.7873 16.1673 39.9977 15.4619C40.2099 14.7503 39.501 15.1002 39.2627 15.3862" stroke="black" stroke-linecap="round"/>
<path d="M26 20.8116C26 20.8116 26.3749 20.5253 26.7975 20.3556C26.7975 20.532 27.0483 20.7203 27.2009 20.8325M27.2009 20.9107C33.7089 29.4744 42.481 25.143 44.3418 22.8633C45.6709 21.4955 46.2025 20.3556 46.2825 20C46.3388 20.002 46.7342 20.1277 47 20.1277" stroke="black" stroke-linecap="round"/>
<path d="M13.1447 51.0001C16.5 50.5 18.2553 48.1278 18.3198 48.0705C19.9121 49.0096 24.4901 49.0096 26.4805 48.4124C35.1503 47 35.1503 37.2401 35.1503 36.3768C36 25.5 25.2863 23.9302 22.8622 24.1449C20.9073 24.1449 12.3485 25.2139 10.6625 35.2757C9.69533 41.0479 14.062 45.3094 14.3389 45.626C14.5 48 13.2065 50.7219 13.1447 51.0001Z" fill="white" stroke="black" stroke-linecap="round"/>
<path d="M25.7696 34.0316C25.9449 34.0065 25.9943 33.8755 25.9884 33.75C25.9929 33.7223 25.9957 33.6925 25.9969 33.6615C26.005 33.4456 25.9332 33.1692 25.8258 33.0839C25.6444 32.9398 25.4855 33.1547 25.4301 33.4164C25.4124 33.448 25.404 33.4893 25.4082 33.5417C25.4086 33.5475 25.4095 33.5536 25.4106 33.56C25.3954 33.8199 25.4905 34.0715 25.7696 34.0316Z" fill="white"/>
<path d="M25.8258 33.614C25.8501 33.2255 26.2134 33.9682 25.7696 34.0316C25.1506 34.12 25.4363 32.7746 25.8258 33.0839C25.9796 33.206 26.0603 33.72 25.9382 33.887C25.7588 34.1326 25.4222 33.7165 25.4082 33.5417C25.3809 33.2005 25.8901 33.3282 25.9704 33.5738C26.0879 33.9333 26.0421 34.0748 25.6812 34.1199" stroke="black" stroke-linecap="round"/>
<path d="M20.0512 34.0355C20.3396 34.365 20.4854 34.0092 20.4767 33.7139C20.4884 33.6685 20.4954 33.6199 20.4962 33.5704C20.4972 33.518 20.4913 33.4646 20.4769 33.413C20.2401 32.5635 19.7105 33.6368 19.9965 33.9235C20.0103 33.9706 20.0288 34.0099 20.0512 34.0355Z" fill="white"/>
<path d="M20.1878 33.4693C20.6243 33.0812 20.5574 34.6139 20.0512 34.0355C19.9206 33.8862 19.9221 33.2746 20.2199 33.3287C20.382 33.3582 20.5075 33.9149 20.3243 33.9672C19.4583 34.2146 20.1871 32.373 20.4769 33.413C20.5824 33.7915 20.2317 34.2665 20.0753 33.7423C19.9176 33.2136 20.4444 33.4736 20.6215 33.6861" stroke="black" stroke-linecap="round"/>
<path d="M30.6604 38.6593C30.6604 38.6593 30.3797 38.4093 30.0633 38.2612C30.0633 38.4152 29.8755 38.5796 29.7612 38.6775M29.7612 38.7458C24.8882 46.2229 18.3198 42.4411 16.9265 40.4507C15.9313 39.2564 15.5332 38.2612 15.4733 37.9507C15.4311 37.9524 15.1351 38.0622 14.9361 38.0622" stroke="black" stroke-linecap="round"/>
<path d="M56.142 2.10213L51.6424 5.94956L52.4039 7.09177L57.5958 4.08596L56.142 2.10213Z" fill="#A1A6CA"/>
<path d="M52.1962 1.66128L50.1195 4.80736L49.358 4.04588L50.9502 1L52.1962 1.66128Z" fill="#A1A6CA"/>
<path d="M53.5461 9.75692L53.1654 8.61471C54.8268 8.17386 57.3881 7.83988 58.4957 7.4725V9.37618L53.5461 9.75692Z" fill="#A1A6CA"/>
<path d="M56.142 2.10213L51.6424 5.94956L52.4039 7.09177L57.5958 4.08596L56.142 2.10213Z" stroke="black"/>
<path d="M52.1962 1.66128L50.1195 4.80736L49.358 4.04588L50.9502 1L52.1962 1.66128Z" stroke="black"/>
<path d="M53.5461 9.75692L53.1654 8.61471C54.8268 8.17386 57.3881 7.83988 58.4957 7.4725V9.37618L53.5461 9.75692Z" stroke="black"/>
<path d="M1.43584 7.45199L11 15.4999L11 15L6 9L3.18468 5.7227L1.43584 7.45199Z" fill="#A1A6CA"/>
<path d="M1.57921 11.4198L6.5 14.5L4.5 14.5L1.10809 12.7494L1.57921 11.4198Z" fill="#A1A6CA"/>
<path d="M10.5 9L11.5 13.012C11 12.5 6.9284 5.37685 6.40235 4.33522L8.28539 4.05566L10.5 9Z" fill="#A1A6CA"/>
<path d="M1.43584 7.45199L11 15.4999L11 15L6 9L3.18468 5.7227L1.43584 7.45199Z" stroke="black"/>
<path d="M1.57921 11.4198L6.5 14.5L4.5 14.5L1.10809 12.7494L1.57921 11.4198Z" stroke="black"/>
<path d="M10.5 9L11.5 13.012C11 12.5 6.9284 5.37685 6.40235 4.33522L8.28539 4.05566L10.5 9Z" stroke="black"/>
<path d="M9 27.1743L10.9037 28.3165" stroke="black"/>
<path d="M11.6652 27.555L9.38074 25.6514" stroke="black"/>
<path d="M10.9037 24.8901L12.4266 26.7938" stroke="black"/>
</svg>
