<svg width="55" height="56" viewBox="0 0 55 56" fill="none" xmlns="http://www.w3.org/2000/svg">
<path d="M7.61304 48C7.61304 42.2055 8.22609 17.0981 7 4.86521C16.1956 2.28956 32.1348 2.28736 36.4261 1C37.6522 9.36986 39.4913 33.8356 38.8782 44.7808C30.9087 46.7123 14.9696 47.3562 7.61304 48Z" fill="#BDE0B1" stroke="black"/>
<path d="M11.6311 51.0506C11.6311 45.1266 12.2621 19.4579 11 6.95162C20.466 4.31838 36.8738 4.31613 41.2913 3C42.5534 11.557 44.4466 36.5696 43.8155 47.7595C35.6117 49.7342 19.2039 50.3924 11.6311 51.0506Z" fill="#F3FFEF" stroke="black"/>
<path d="M15.5728 54.9998C15.5728 49.0758 16.2039 23.4071 14.9418 10.9008C23.1457 9.58211 43.3399 8.26565 47.1263 7.60742C49.0195 16.1644 48.3884 40.5188 47.7573 51.7087C39.5535 53.6834 23.1457 54.3416 15.5728 54.9998Z" fill="white" stroke="black"/>
<path d="M25.3315 18.7594C29.6273 17.8835 40.2275 16.0531 43.5302 15.8863" stroke="black" stroke-linecap="round"/>
<path d="M25.5059 22.7047C29.364 22.0706 38.9309 20.6967 41.8919 20.5472" stroke="black" stroke-linecap="round"/>
<path d="M25.7965 29.2796C29.6546 28.6455 38.111 27.34 41.072 27.1905" stroke="black" stroke-linecap="round"/>
<path d="M26.2616 39.7999C29.5232 39.1959 36.6726 37.9563 39.1781 37.8298" stroke="black" stroke-linecap="round"/>
<path d="M26.1162 36.5126C30.412 35.6367 39.8293 33.8433 43.1319 33.6766" stroke="black" stroke-linecap="round"/>
<path d="M26.5812 47.0326C30.877 46.1568 40.2942 44.3634 43.5969 44.1966" stroke="black" stroke-linecap="round"/>
<path d="M20.6283 18.444C20.3824 19.1792 20.8678 19.396 21.1634 18.7109C21.3554 18.2657 20.8177 18.1167 20.6935 18.5702C20.5344 19.1506 21.1197 18.9824 21.2052 18.5362C21.2973 18.0562 20.5884 18.5244 21.1308 18.6187" stroke="#87B876" stroke-linecap="round"/>
<path d="M21.7172 29.538C21.6707 29.544 21.5026 29.703 21.5915 29.703C21.6844 29.703 21.5969 29.4154 21.424 29.4555C21.2857 29.4875 20.9675 30.0387 21.2147 29.965C21.3856 29.9141 21.716 29.4449 21.4519 29.3244C21.1047 29.166 20.8052 29.6955 20.8052 30.0087C20.8052 30.3489 21.3579 29.9088 21.4147 29.7903C21.4813 29.6515 21.5775 29.1151 21.2984 29.1983C21.1342 29.2472 21.0194 29.7835 21.1774 29.8777C21.5774 30.1161 21.9792 28.5123 20.982 29.3633C20.8141 29.5066 20.4204 30.1585 20.7773 30.3047C21.0313 30.4088 21.4516 30.2646 21.531 29.9747C21.7423 29.2033 20.7925 29.019 20.8797 29.868C20.9143 30.2048 21.4667 30.2186 21.6334 30.0038C21.7533 29.8494 21.9555 29.3633 21.6334 29.3633" stroke="#87B876" stroke-linecap="round"/>
<path d="M21.2984 36.9628C21.13 36.9824 21.0404 37.341 21.1495 37.4675C21.3902 37.7465 21.6973 37.1979 21.7125 37.0162C21.7954 36.0222 20.3785 38.4375 21.531 37.4869C21.6378 37.3989 21.9452 36.85 21.6148 36.8755C21.3467 36.8962 20.7829 37.778 21.1821 37.8218C21.4075 37.8465 21.8254 37.3834 21.5822 37.1861C21.3722 37.0157 21.2147 37.4104 21.2147 37.5743" stroke="#87B876" stroke-linecap="round"/>
<path d="M21.2986 47.6199C21.4361 47.6199 21.4785 47.5827 21.5312 47.4451C21.5902 47.2912 21.3128 47.7768 21.3916 47.9207C21.5623 48.2322 22.2167 47.6329 22.3222 47.5082C22.468 47.3359 22.3226 46.8842 22.0709 46.9404C21.6365 47.0375 21.4513 47.9272 22.0849 47.5713C22.2384 47.4851 22.2846 47.1077 22.2012 46.9599C22.0775 46.7406 21.7363 47.3823 21.722 47.4791C21.6507 47.9623 22.3823 47.4894 22.2012 46.9793C21.9734 46.3378 21.0052 47.7335 21.5173 47.7897C21.6154 47.8005 21.9491 47.8532 22.0058 47.7266C22.1138 47.4852 22.1333 46.9379 21.8197 46.8531C21.3622 46.7294 21.3193 48.2899 21.8011 47.6199" stroke="#87B876" stroke-linecap="round"/>
<path d="M53 31C51.5 33 50.0001 42.5 50.5001 46.5" stroke="black" stroke-linecap="round"/>
<path d="M54 37C53.4226 37.9032 52.8453 42.1935 53.0378 44" stroke="black" stroke-linecap="round"/>
<path d="M0.5 2.5C1.66667 3.5 4.2 7.5 5 15.5" stroke="black" stroke-linecap="round"/>
<path d="M1 8C2 9.5 2.6 11.9 3 13.5" stroke="black" stroke-linecap="round"/>
</svg>
