<svg width="68" height="65" viewBox="0 0 68 65" fill="none" xmlns="http://www.w3.org/2000/svg">
<path d="M28.2403 3.59839L24.9369 15.6536L24.653 15.2422L25.3622 7.35869L25.3622 3L28.2403 3.59839Z" fill="#ECB563"/>
<path d="M30.3751 6.94595L28.0734 12.2755L30.3751 10.5L31.5179 7.77298L30.3751 6.94595Z" fill="#ECB563"/>
<path d="M21.6579 10.0192L22.9999 13C23.1208 12.2947 22.5407 5.00882 22.3823 3.85269L19.9999 5L21.6579 10.0192Z" fill="#ECB563"/>
<path d="M28.2403 3.59839L24.9369 15.6536L24.653 15.2422L25.3622 7.35869L25.3622 3L28.2403 3.59839Z" stroke="black"/>
<path d="M30.3751 6.94595L28.0734 12.2755L30.3751 10.5L31.5179 7.77298L30.3751 6.94595Z" stroke="black"/>
<path d="M21.6579 10.0192L22.9999 13C23.1208 12.2947 22.5407 5.00882 22.3823 3.85269L19.9999 5L21.6579 10.0192Z" stroke="black"/>
<path d="M36.3736 57.0182C27 58.9999 0.999845 43.9595 12.9999 20C13.218 19.1607 13.6309 16.1444 15 16.5C22.6431 18.4852 28 32 23.8814 32.3712C23.5583 32.4004 23.3343 32.4091 23.0534 32.4159C22.7423 32.4235 20.5286 35.5593 17.1835 33.4441C16.3261 33.4137 16.3242 34.4381 16.1527 35.0984C15.5965 42.8054 21.0966 45.3397 21.7015 45.4968C22.5268 45.9324 24.7008 46.9376 24.7627 46.6989C24.9047 46.1522 24.9198 45.3833 25.5 45C27.0621 43.7286 28.3703 44.4348 28.824 44.3772C29.4602 44.2963 29.4031 43.32 29.6291 42.8201C30 42 30.8476 41.7588 31.3214 41.8819C34.2843 43.1207 41.118 54.7498 37.9893 56.9406C37.7899 57.3305 36.7268 56.9597 36.3736 57.0182Z" fill="white" stroke="black" stroke-linecap="round"/>
<path d="M31.2526 44.2282C30.0728 45.3659 35.0549 55.3431 36.7733 54.9754C37.8636 53.9019 33.0689 44.2447 31.2526 44.2282Z" fill="#ECB563" stroke="black" stroke-linecap="round"/>
<path d="M15.7694 18.9362C14.7731 20.2377 21.1923 29.3569 22.8363 28.7362C23.7537 27.5116 17.5676 18.6807 15.7694 18.9362Z" fill="#ECB563" stroke="black" stroke-linecap="round"/>
<path d="M32.8037 47.9852C33.6776 47.5848 40.2181 43.8181 40.3117 43.7349C42.6219 45.0974 46.9019 46.2665 52.1514 44.231C65.6744 41 64.7294 28.0222 64.7294 26.7696C63.991 11.3112 50.4187 8.71212 46.9019 9.02366C44.0658 9.02366 30.1746 10 29.2025 25.1723C27.7994 33.5465 34.1345 39.7292 34.5363 40.1884C34.768 40.4532 32.8933 47.5816 32.8037 47.9852Z" fill="#FFF1DB" stroke="black" stroke-linecap="round"/>
<path d="M38.851 23.6248H38.85L38.8501 32.804C39.9207 32.804 42.4207 32.8557 43.4905 32.8129C44.1854 29.9311 44.1854 25.0061 43.4905 23.7749C42.6755 23.6248 39.4097 23.6248 38.851 23.6248Z" fill="#ECB563" stroke="black" stroke-linecap="round"/>
<path d="M47.4997 21.4527C47.1922 22.0678 46.2374 22.9539 45.2483 23.6245C45.827 25.006 46.6479 29.5206 45.2484 32.9806C51.6746 33.5 53.2145 32.5 53.625 31.1623C53.625 31.1623 54.0354 30.3415 53.2145 29.9311C53.625 29.5207 54.0354 29.1102 53.9613 28.8032C53.9377 28.3788 53.625 27.879 53.2145 27.879C54.4458 27.4686 54.8562 26.2373 54.1655 25.7591C54.8562 25.4165 54.6977 25.2042 54.8562 25.0061C55.2666 24.1852 54.8562 22.954 49.9128 22.7892C50.3416 22.1331 50.4038 20.3797 50.3416 19.2602C50.2955 18.4294 49.1104 17.2081 48.2051 18.6128C48.2051 19.8133 48.0136 20.4249 47.4997 21.4527Z" fill="#ECB563" stroke="black" stroke-linecap="round"/>
<path d="M6.23601 23.9999C5.36948 25.3557 3.88186 29.2538 4.86366 34" stroke="black" stroke-linecap="round"/>
<path d="M2.79009 25.3078C2.27017 26.1213 1.3776 28.4601 1.96668 31.3079" stroke="black" stroke-linecap="round"/>
<path d="M21.3101 57.2772C22.3954 58.4651 25.7757 60.911 30.6143 61.1911" stroke="black" stroke-linecap="round"/>
<path d="M21.6816 60.9442C22.3328 61.6569 24.361 63.1244 27.2641 63.2925" stroke="black" stroke-linecap="round"/>
<path d="M65.6296 17.0226C65.1784 15.4781 63.2208 11.7935 59.0001 9.41105" stroke="black" stroke-linecap="round"/>
<path d="M66.9113 13.567C66.6406 12.6403 65.466 10.4295 62.9336 9.00005" stroke="black" stroke-linecap="round"/>
</svg>
