<svg width="107" height="102" viewBox="0 0 107 102" fill="none" xmlns="http://www.w3.org/2000/svg">
<path d="M103 1.1002C102.28 0.620202 100.6 2.30015 99.3999 3.2002C98.4999 3.92018 81.3999 17.0001 79.2999 18.8001C80.2999 19.7001 82.6599 21.8001 84.0999 23.0001C84.9999 23.0001 93.3999 15.2001 95.4999 13.4001C97.8999 11.3001 101.241 8.87947 102 8.5C104 7.5 105.8 7.1 105.5 6.5C105.26 6.02 104.1 6.10014 103.5 6.20014C104.2 5.70014 105.34 5.18014 105.1 4.70014C104.86 4.22014 103.4 4.70014 102.7 5.00014C103.5 4.50014 104.92 3.38014 104.2 2.90014C103.48 2.42014 102.1 3.30014 101.5 3.80014C102.7 2.60014 103.6 1.58834 103 1.1002Z" fill="#F5E7E7" stroke="black" stroke-linecap="round"/>
<path d="M81.0998 94.3999C80.6198 95.1199 74.4999 99.0999 71.4999 101C70.5399 100.04 70.4999 97.9999 70.5999 97.0999L75.0999 94.0999C76.7999 93.6999 80.3799 92.8999 81.0998 92.8999C81.9998 92.8999 81.6998 93.4999 81.0998 94.3999Z" fill="#961212" stroke="black" stroke-linecap="round"/>
<path d="M28.5998 65.9001C28.8398 63.5001 31.6998 56.3001 33.0998 53.0001L42.6998 49.1001H57.0998C57.1998 49.5001 58.2398 51.5601 61.5998 56.6001C65.7998 62.9001 72.9998 83 73.5998 87.2C71.9198 88.4 68.2998 89.1 66.6998 89.3C62.4998 79.7001 55.8998 64.4001 45.9998 56.6001C43.2998 59.0001 34.5998 80.6 27.6998 78.5001C20.7998 76.4001 17.1999 65.3001 16.5999 63.5001C16.5999 62.6001 22.5998 57.2001 23.7998 56.6001C24.3998 56.9001 27.3998 63.8001 28.5998 65.9001Z" fill="black" stroke="black" stroke-linecap="round"/>
<path d="M76.6 20.3002L78.6999 18.2002C79.9999 19.2002 82.9599 21.7402 84.3999 23.9002C85.8399 26.0602 83.9999 25.8002 82.8999 25.4002C78.5999 28.6002 69.58 35.7802 67.9 38.9002C65.8 42.8002 66.7332 50.5668 62.2 55.7001C59.5 57.8001 57.6666 57.9335 55.3 59.0001C53.8047 58.5017 60.7973 37.0941 63.2078 29.0002L64 26.0002C64 24.8002 64.8 26.7002 65.2 27.8002C68 25.8002 74.2 21.5002 76.6 20.3002Z" fill="#ECB563"/>
<path d="M51.4715 25.6627L50.9054 26.9083C50.6032 27.7674 50.5 28.5365 50.5 29.0002C48.4 36.0002 43.6 50.3001 41.2 51.5001C38.2 53.0001 34.6 53.3001 29.5 53.0001C31.6 49.4001 34.6 44.0002 34.9 42.8002C35.2 41.6002 40.6 32.9002 41.2 32.0002C41.8 31.1002 38.5 30.718 34.9 35.2591C35.4991 35.5107 35.675 35.8652 34 36.2002C31.6 36.6802 28.4 38.8002 27.1 39.8002C26.7 39.2002 26.14 37.6402 27.1 36.2002C27.2399 35.9903 27.4453 35.8118 27.7 35.6607C28.8 31.3405 34.06 22.8202 46.3 23.3002C48.7 23.3002 50.4999 22.4002 52.9 23.9002C52.2878 24.4358 51.822 25.0467 51.4715 25.6627Z" fill="#ECB563"/>
<path d="M76.6 20.3002L78.6999 18.2002C79.9999 19.2002 82.9599 21.7402 84.3999 23.9002C85.8399 26.0602 83.9999 25.8002 82.8999 25.4002M76.6 20.3002L82.8999 25.4002M76.6 20.3002C74.2 21.5002 68 25.8002 65.2 27.8002M82.8999 25.4002C78.5999 28.6002 69.58 35.7802 67.9 38.9002C65.8 42.8002 66.7332 50.5668 62.2 55.7001C59.5 57.8001 57.6666 57.9335 55.3 59.0001C53.8047 58.5017 60.7973 37.0941 63.2078 29.0002M65.2 27.8002C64.8 26.7002 64 24.8002 64 26.0002M65.2 27.8002L64.5999 31.1002L63.2078 29.0002M64 26.0002C64 26.2541 63.699 27.3507 63.2078 29.0002M64 26.0002L63.2078 29.0002M27.7 35.6607C29.1924 34.7752 32.377 34.8293 34 35.0002C34.3021 35.0606 34.6407 35.1502 34.9 35.2591M27.7 35.6607C27.4453 35.8118 27.2399 35.9903 27.1 36.2002C26.14 37.6402 26.7 39.2002 27.1 39.8002C28.4 38.8002 31.6 36.6802 34 36.2002C35.675 35.8652 35.4991 35.5107 34.9 35.2591M27.7 35.6607C28.8 31.3405 34.06 22.8202 46.3 23.3002C48.7 23.3002 50.4999 22.4002 52.9 23.9002C52.2878 24.4358 51.822 25.0467 51.4715 25.6627M34.9 35.2591C38.5 30.718 41.8 31.1002 41.2 32.0002C40.6 32.9002 35.2 41.6002 34.9 42.8002C34.6 44.0002 31.6 49.4001 29.5 53.0001C34.6 53.3001 38.2 53.0001 41.2 51.5001C43.6 50.3001 48.4 36.0002 50.5 29.0002C50.5 28.5365 50.6032 27.7674 50.9054 26.9083M51.4715 25.6627L50.9054 26.9083M51.4715 25.6627L52 24.5002C52 24.1002 51.7 23.4202 50.5 23.9002C49.3 24.3802 48 25.9002 47.5 26.6002L50.5 27.8002L50.9054 26.9083M51.4715 25.6627C51.2325 26.0829 51.047 26.5055 50.9054 26.9083" stroke="black" stroke-linecap="round"/>
<path d="M67.2999 87.5C68.2999 87.5 70.6599 87.2 72.0999 86" stroke="white" stroke-linecap="round"/>
<path d="M70 21.5002C72.5275 18.0884 70.5999 12.2001 69.3999 9.5001C63.0999 4.10011 54.9999 15.8001 52.5999 17.6001C50.6799 19.0401 52.7999 20.4001 54.0999 20.9001C53.6999 21.6001 52.8399 23.2401 52.5999 24.2001C54.0399 29.2401 60.3999 29.1001 63.3999 28.4001L64.2999 25.4001L64.5999 24.2001C67 24.0002 68 24.2001 70 21.5002Z" fill="#F5E7E7" fill-opacity="0.5" stroke="black" stroke-linecap="round"/>
<path d="M52.9 18.5003C52.42 19.4603 53.5 20.5003 54.1 20.9003C52.0001 22.1003 51.1 19.1003 52 18.5003C51.2012 18.2003 50.8 16.7002 52 15.8002C50.5 15.2002 49.3 13.1002 51.4 12.5002C49.9 8.30021 53.5 8.00021 54.7 8.60024C54.1 5.00024 58.9 4.40022 60.4 5.30024C61.6 2.6003 65.8 5.00019 66.4 6.20024C67 5.00024 69.1 5.00024 70 6.50024C70.9 8.00024 69.4 8.90024 68.5 8.60024C68.5 9.20024 67 10.4002 66.1 9.80023C66.1 11.0002 64.3 11.9002 63.7 11.9002C63.1 11.9002 63.1 11.0002 62.5 11.0002C60.7 13.1002 59.8 12.2002 59.2 11.9002C59.2 12.8002 57.7 13.7002 56.8 13.7002C57.04 14.4202 56.3 15.6002 55.9 16.1002C55.9 17.0002 55.9 19.1003 54.7 19.1003C54.4 18.2003 54.1 17.6003 52.9 18.5003Z" fill="black" stroke="black" stroke-linecap="round"/>
<path d="M63.0998 28.4002C56.8599 29.6002 53.6999 25.8002 52.8999 24.2002C48.9998 26.9002 41.7999 47.9002 42.6999 48.2002C43.4199 48.4402 52.7999 48.7002 57.3999 48.8002C58.6999 44.2002 61.6599 33.6802 63.0998 28.4002Z" fill="#87B876" stroke="black" stroke-linecap="round"/>
<path d="M54.3998 50.6001H42.0999L45.3998 31.1001L58.5998 31.7001L54.3998 50.6001Z" fill="#D9D9D9" stroke="black" stroke-linecap="round"/>
<path d="M56.002 50.0002C57.0998 44.6002 60.0997 34.4002 60.6309 30.5884C59.7997 31.1002 58.5997 31.7002 58.3403 32.0002C57.3998 35.9002 54.3999 49.4002 54.0999 50.6002C54.4975 50.529 54.597 50.3696 54.9998 50.3002C55.2909 50.25 55.7237 50.0797 56.002 50.0002Z" fill="#D9D9D9" stroke="black" stroke-linecap="round"/>
<path d="M60.6999 30.2001L47.4999 29.6001L45.3999 31.1001L58.5999 31.7001L60.6999 30.2001Z" fill="#D9D9D9" stroke="black" stroke-linecap="round"/>
<path d="M42.3999 33.8C42.3781 34.0186 42.0999 35 41.9722 35.408C42.1842 35.4345 47.4999 34.7 52.4204 35.3842C52.47 35.0987 52.7794 33.9815 52.5999 33.5C52.3249 33.5 42.6999 33.8 42.3999 33.8Z" fill="white" stroke="black" stroke-linecap="round"/>
<path d="M54.0456 34.2256C53.6382 34.0541 53.4999 34.1002 52.8525 33.7378C52.5999 34.1002 52.4731 35.4367 52.5768 35.4663C52.787 35.5264 53.5802 35.5943 53.7999 35.6002C53.8742 35.3403 54.0566 34.965 54.0999 34.7002C54.126 34.5411 54.2505 34.3119 54.0456 34.2256Z" fill="white" stroke="black" stroke-linecap="round"/>
<path d="M53.2555 35.6715C46.8999 34.1003 36.0999 36.2636 35.1999 35.901C34.6 35.901 28.9 38.001 27.1 39.801C30.4 44.301 50.7999 39.501 52.423 40.9553C52.5738 40.9951 52.7432 41.0122 52.9003 40.9897C53.041 40.9696 53.1215 40.7648 53.2316 40.6822C53.3723 40.5767 53.3775 40.4387 53.3775 40.2766C53.3775 40.1613 53.2378 40.0876 53.3297 39.9902C53.4578 39.8546 53.8397 39.6682 53.7354 39.4388C53.6154 39.1749 53.806 38.8218 53.6744 38.5586C53.588 38.3857 53.6644 38.2975 53.7486 38.1291C53.8598 37.9067 53.7592 37.7189 53.7592 37.4875C53.7592 37.3683 53.7204 37.275 53.7115 37.1641C53.7049 37.082 53.5418 37.0023 53.5418 36.9838C53.5418 36.9498 54.104 36.5814 54.1649 36.5543C54.4337 36.4348 54.2284 36.069 54.0933 35.934C53.8304 35.6711 53.5958 35.7525 53.2555 35.6715Z" fill="#F5E7E7" stroke="black" stroke-linecap="round"/>
<path d="M51.4 47.3002L49.6 47.6002L40.6 47.9002L40.9 41.6002C42.82 41.6002 48.5 41.0002 51.1 40.7002L52.9 41.3002L51.4 47.3002Z" fill="white"/>
<path d="M51.1 40.7002L49.6 47.6002M51.1 40.7002L52.9 41.3002L51.4 47.3002L49.6 47.6002M51.1 40.7002C48.5 41.0002 42.82 41.6002 40.9 41.6002L40.6 47.9002L49.6 47.6002" stroke="black" stroke-linecap="round"/>
<path d="M17.7999 61.4C17.7999 60.92 14.3999 55.2 12.7 52.4C13.6599 52.16 16.0999 50.7 17.1999 50L22.2999 57.2C21.3999 58.2 19.2399 60.44 17.7999 61.4Z" stroke="black" stroke-linecap="round"/>
<path d="M15.1001 56.0003C15.8001 55.8003 17.6201 54.9803 19.3001 53.3003" stroke="black" stroke-linecap="round"/>
<path d="M69.1887 93.1998C68.7285 91.7224 68.2298 90.2424 67.8999 89.2998C69.5799 89.2998 72.1999 88.2998 73.2999 87.7998C73.5428 88.4799 73.9179 89.6038 74.2669 90.7998M69.1887 93.1998C69.7051 94.8573 70.173 96.5115 70.2999 97.3998C72.9999 95.8998 73.8999 94.9998 75.0999 94.3998C74.9765 93.4125 74.6363 92.0657 74.2669 90.7998M69.1887 93.1998C70.7038 92.7998 73.8405 91.7598 74.2669 90.7998" stroke="black" stroke-linecap="round"/>
<path d="M6.40006 54.5C6.64006 53.06 13.1 49.9 16.3 48.5L17.2 49.7L12.7 52.4C10.5001 53.7 6.16006 55.94 6.40006 54.5Z" fill="#961212" stroke="black" stroke-linecap="round"/>
<path d="M60.3198 71.2544C60.7274 71.2544 61.4001 71.0728 61.6883 70.7846C62.2211 70.2518 61.9482 70.7159 61.6066 70.8867" stroke="black" stroke-linecap="round"/>
<path d="M60.5035 71.2541C60.6771 71.2324 61.5191 70.1421 61.6065 69.9673" stroke="white" stroke-linecap="round"/>
<path d="M61.3314 72.7C61.5035 72.7 61.6765 72.7063 61.8484 72.6981C62.0103 72.6904 62.1677 72.6313 62.3272 72.6313" stroke="white" stroke-linecap="round"/>
<path d="M48.0779 56.5554C48.5075 56.5554 50.3 55.6668 51.4333 55.1001" stroke="white" stroke-linecap="round"/>
<path d="M50.1429 57.8043C51.1441 57.8043 52.7606 57.8043 53.7 57.3667" stroke="white" stroke-linecap="round"/>
<path d="M28.1947 66.5928C27.8016 66.7343 27.6388 67.3046 27.6211 67.6867C27.6084 67.9598 27.6184 68.2351 27.6184 68.5085" stroke="white" stroke-linecap="round"/>
<path d="M28.915 66.7368C28.915 67.0328 28.915 68.2315 29.3333 68.6999" stroke="white" stroke-linecap="round"/>
<path d="M17.9999 63.6C20.7018 60.5205 22.5332 59.6333 23.6665 58.5" stroke="white" stroke-linecap="round"/>
<path d="M27.5704 71.5879C27.5741 71.7579 27.5704 72.1812 27.9066 72.5484" stroke="white" stroke-linecap="round"/>
<path d="M3.3899 55.5147C3.3899 54.207 3.3696 53.473 3.83358 52.2667C4.0095 51.8093 5.14524 50.3019 5.53344 50" stroke="black" stroke-linecap="round"/>
<path d="M1.91912 51.7002C1.56667 52.2669 1 53.9885 1 54.9635C1 56.1071 1.09284 56.8945 1.91912 57.7208" stroke="black" stroke-linecap="round"/>
<path d="M22.9999 31C21.9999 31.5 20.9999 34.5 21.4999 36.5" stroke="black" stroke-linecap="round"/>
<path d="M25.4999 31.5005C24.4999 33.0005 23.9264 36.6035 24 37.5005" stroke="black" stroke-linecap="round"/>
<path d="M71 40.5634C75.3036 35.6764 80.43 33.5987 81.854 31.2726" stroke="black" stroke-linecap="round"/>
<path d="M73.1556 42.1825C74.5738 39.7579 76.8784 38.7889 78.0673 37.7466" stroke="black" stroke-linecap="round"/>
<path d="M54.6838 88.918C55.1629 91.9292 61.5908 95.5051 63 96.0002" stroke="black" stroke-linecap="round"/>
<path d="M54 95C55.0511 95.5905 57.2506 97 60 97" stroke="black" stroke-linecap="round"/>
<path d="M67.8597 18.5757C67.4159 18.5757 67.0948 19.0511 67.0573 19.4826C67.0392 19.6902 66.7329 20.4413 67.0871 20.52C67.4475 20.6001 67.4188 19.8264 67.1879 19.852C66.9218 19.8816 67.1756 20.3383 67.1879 19.9192C67.1973 19.5988 66.9864 19.7278 66.9864 19.9864" stroke="black" stroke-linecap="round"/>
<path d="M60.7391 13.4036C61.1605 13.2577 62.3045 12.5489 61.9147 12.7654C61.582 12.9503 61.1892 13.0587 60.8735 13.2692" stroke="black" stroke-linecap="round"/>
<path d="M68.0613 10.5821C68.5653 10.5821 69.0839 10.4478 69.6063 10.4478" stroke="black" stroke-linecap="round"/>
<path d="M68.6658 14.0078C68.4201 13.9771 69.1243 13.4726 69.2032 13.4331C69.4138 13.3278 69.5719 13.3361 69.8078 13.3361" stroke="black" stroke-linecap="round"/>
<path d="M60.8735 16.6278C60.9326 16.0964 61.5956 15.9561 62.0155 15.9561" stroke="black" stroke-linecap="round"/>
<path d="M65.0384 15.0826C64.8715 15.064 64.6572 14.7989 64.5047 14.7131C64.2964 14.5959 63.9494 14.601 63.777 14.4631C63.5821 14.3071 63.1951 14.4649 62.9559 14.3586C62.3258 14.0785 61.6263 14.6795 61.0414 14.6795C60.091 14.6795 59.2135 15.6826 58.959 16.497C58.8331 16.8998 58.7149 17.3006 58.7948 17.7397C58.8613 18.1054 59.2744 18.6372 59.6121 18.7623C60.0491 18.9242 60.4499 19.1026 60.8884 19.2325C61.1436 19.3081 61.6181 19.3 61.8811 19.3146C62.5924 19.3542 63.6111 19.102 64.0942 18.5384C64.3344 18.2582 64.6472 18.095 64.8742 17.8032C65.0014 17.6397 65.128 17.5606 65.225 17.3665C65.3047 17.2071 65.3242 17.0134 65.4079 16.8627C65.6285 16.4656 65.653 15.0154 64.9712 15.0154" stroke="black" stroke-linecap="round"/>
<path d="M67.4567 15.2844C66.8074 14.2531 67.648 13.2399 68.3076 12.5003C68.7937 11.9553 69.2144 11.4798 69.778 11.0187C70.2961 10.5948 70.9514 10.6492 71.5842 10.6492C71.9338 10.6492 72.1454 10.776 72.4277 10.9329C72.826 11.1542 72.7862 11.5662 73.0323 11.8584C73.4838 12.3947 73.5218 12.9571 73.5025 13.6348C73.4868 14.1849 73.0475 14.5668 72.7971 15.0119C72.5433 15.4632 72.0438 15.6385 71.6514 15.9263C70.9949 16.4078 69.8137 16.3229 69.0689 16.0569C68.6595 15.9107 68.1566 15.5799 67.8448 15.2993C67.7118 15.1796 67.3098 15.0579 67.2551 14.9485" stroke="black" stroke-linecap="round"/>
<path d="M65.1727 15.2169C65.2126 14.8578 65.9782 14.4769 66.2811 14.3138C66.5767 14.1546 66.7875 14.1421 67.1208 14.1421" stroke="black" stroke-linecap="round"/>
<path d="M55.9025 17.0977C56.2711 17.0977 56.6209 16.9634 56.9997 16.9634C57.2958 16.9634 57.5853 16.8962 57.8879 16.8962C58.2002 16.8962 58.9589 16.7618 59.1269 17.0977" stroke="black" stroke-linecap="round"/>
<path d="M61.6795 17.837C62.0357 17.951 62.5116 18.0987 62.8738 18.0012C63.0178 17.9625 63.4922 17.5601 63.247 17.4041C62.9186 17.1951 61.4491 17.5473 61.3474 18.005C61.2847 18.2871 62.2974 17.9449 62.3737 17.9079C62.6545 17.7718 63.0263 17.6248 63.2507 17.4004C63.362 17.2891 62.3741 17.3011 62.2207 17.3369C61.9447 17.4013 61.6238 17.6447 61.4482 17.8706C61.2558 18.1179 61.8113 18.1001 61.9109 18.0908C62.4132 18.0441 62.8237 17.8724 63.2768 17.6877C63.3778 17.6466 63.5306 17.3856 63.5306 17.2772C63.5306 17.1128 62.6965 17.3418 62.62 17.3668C62.3285 17.4622 61.2304 18.2561 62.0826 18.2401C62.5309 18.2316 62.9417 17.9691 63.3291 17.7698C63.4722 17.6962 63.6203 17.7174 63.6948 17.5683" stroke="#F5AFAF" stroke-linecap="round"/>
<path d="M70.0765 15.0827C69.7919 15.0827 69.5871 15.0899 69.4495 15.3775C69.328 15.6317 69.5887 15.6294 69.778 15.6164C70.1634 15.5898 70.864 15.3806 70.8826 14.8961C70.9019 14.395 69.3021 14.9502 69.6212 15.2693C69.8465 15.4946 70.6603 15.1629 70.7408 14.8812C70.8682 14.4351 69.9851 14.7883 69.8377 14.8812C69.7809 14.9169 69.0319 15.5012 69.416 15.5492C69.7403 15.5897 70.2931 15.5077 70.4124 15.1499" stroke="#F5AFAF" stroke-linecap="round"/>
</svg>
